<svg id="visual" viewBox="0 0 900 600" width="900" height="600" xmlns="http://www.w3.org/2000/svg" xmlns:xlink="http://www.w3.org/1999/xlink" version="1.1"><rect x="0" y="0" width="900" height="600" fill="#FFF9E8"></rect><defs><linearGradient id="grad1_0" x1="33.3%" y1="0%" x2="100%" y2="100%"><stop offset="20%" stop-color="#fff9e8" stop-opacity="1"></stop><stop offset="80%" stop-color="#fff9e8" stop-opacity="1"></stop></linearGradient></defs><defs><linearGradient id="grad2_0" x1="0%" y1="0%" x2="66.7%" y2="100%"><stop offset="20%" stop-color="#fff9e8" stop-opacity="1"></stop><stop offset="80%" stop-color="#fff9e8" stop-opacity="1"></stop></linearGradient></defs><g transform="translate(900, 0)"><path d="M0 297.5C-19.2 280 -38.4 262.6 -58.3 255.4C-78.2 248.2 -98.9 251.2 -120.2 249.6C-141.5 247.9 -163.5 241.6 -184.6 231.4C-205.6 221.2 -225.9 207.1 -232.6 185.5C-239.3 163.8 -232.5 134.6 -234.3 112.8C-236 91 -246.4 76.5 -258.4 59C-270.3 41.4 -283.9 20.7 -297.5 0L0 0Z" fill="#FFD879"></path></g><g transform="translate(0, 600)"><path d="M0 -297.5C18.3 -273.5 36.6 -249.6 54.7 -239.8C72.9 -230.1 91 -234.5 114.5 -237.9C138.1 -241.2 167 -243.6 185.5 -232.6C203.9 -221.6 211.9 -197.3 218.9 -174.6C225.9 -151.9 232 -130.9 228.8 -110.2C225.7 -89.5 213.4 -69.3 223.3 -51C233.2 -32.7 265.3 -16.3 297.5 0L0 0Z" fill="#FFD879"></path></g></svg>