<svg id="visual" viewBox="0 0 900 600" width="900" height="600" xmlns="http://www.w3.org/2000/svg" xmlns:xlink="http://www.w3.org/1999/xlink" version="1.1"><rect x="0" y="0" width="900" height="600" fill="#FFFFFF"></rect><path d="M0 172L7.8 161.8C15.7 151.7 31.3 131.3 47.2 143.3C63 155.3 79 199.7 94.8 208.5C110.7 217.3 126.3 190.7 142 155.7C157.7 120.7 173.3 77.3 189.2 80.3C205 83.3 221 132.7 236.8 167.8C252.7 203 268.3 224 284.2 224.3C300 224.7 316 204.3 331.8 188.5C347.7 172.7 363.3 161.3 379 137.7C394.7 114 410.3 78 426.2 60.7C442 43.3 458 44.7 473.8 60C489.7 75.3 505.3 104.7 521 131C536.7 157.3 552.3 180.7 568.2 163.2C584 145.7 600 87.3 615.8 73.7C631.7 60 647.3 91 663.2 97.5C679 104 695 86 710.8 104.5C726.7 123 742.3 178 758 186.5C773.7 195 789.3 157 805.2 162.7C821 168.3 837 217.7 852.8 202.8C868.7 188 884.3 109 892.2 69.5L900 30L900 0L892.2 0C884.3 0 868.7 0 852.8 0C837 0 821 0 805.2 0C789.3 0 773.7 0 758 0C742.3 0 726.7 0 710.8 0C695 0 679 0 663.2 0C647.3 0 631.7 0 615.8 0C600 0 584 0 568.2 0C552.3 0 536.7 0 521 0C505.3 0 489.7 0 473.8 0C458 0 442 0 426.2 0C410.3 0 394.7 0 379 0C363.3 0 347.7 0 331.8 0C316 0 300 0 284.2 0C268.3 0 252.7 0 236.8 0C221 0 205 0 189.2 0C173.3 0 157.7 0 142 0C126.3 0 110.7 0 94.8 0C79 0 63 0 47.2 0C31.3 0 15.7 0 7.8 0L0 0Z" fill="#FFF9E8" stroke-linecap="round" stroke-linejoin="miter"></path></svg>