<svg id="visual" viewBox="0 0 960 540" width="960" height="540" xmlns="http://www.w3.org/2000/svg" xmlns:xlink="http://www.w3.org/1999/xlink" version="1.1"><path d="M0 211L6.3 199.3C12.7 187.7 25.3 164.3 38.2 140.3C51 116.3 64 91.7 76.8 76.5C89.7 61.3 102.3 55.7 115.2 59.3C128 63 141 76 153.8 76.2C166.7 76.3 179.3 63.7 192 62.7C204.7 61.7 217.3 72.3 230.2 76.7C243 81 256 79 268.8 100.5C281.7 122 294.3 167 307.2 181.7C320 196.3 333 180.7 345.8 153.7C358.7 126.7 371.3 88.3 384 76.2C396.7 64 409.3 78 422.2 82.5C435 87 448 82 460.8 89.2C473.7 96.3 486.3 115.7 499.2 135.5C512 155.3 525 175.7 537.8 180.2C550.7 184.7 563.3 173.3 576 173.5C588.7 173.7 601.3 185.3 614.2 186.2C627 187 640 177 652.8 169.3C665.7 161.7 678.3 156.3 691.2 156.7C704 157 717 163 729.8 153C742.7 143 755.3 117 768 116C780.7 115 793.3 139 806.2 145.2C819 151.3 832 139.7 844.8 123C857.7 106.3 870.3 84.7 883.2 71.7C896 58.7 909 54.3 921.8 56C934.7 57.7 947.3 65.3 953.7 69.2L960 73L960 0L953.7 0C947.3 0 934.7 0 921.8 0C909 0 896 0 883.2 0C870.3 0 857.7 0 844.8 0C832 0 819 0 806.2 0C793.3 0 780.7 0 768 0C755.3 0 742.7 0 729.8 0C717 0 704 0 691.2 0C678.3 0 665.7 0 652.8 0C640 0 627 0 614.2 0C601.3 0 588.7 0 576 0C563.3 0 550.7 0 537.8 0C525 0 512 0 499.2 0C486.3 0 473.7 0 460.8 0C448 0 435 0 422.2 0C409.3 0 396.7 0 384 0C371.3 0 358.7 0 345.8 0C333 0 320 0 307.2 0C294.3 0 281.7 0 268.8 0C256 0 243 0 230.2 0C217.3 0 204.7 0 192 0C179.3 0 166.7 0 153.8 0C141 0 128 0 115.2 0C102.3 0 89.7 0 76.8 0C64 0 51 0 38.2 0C25.3 0 12.7 0 6.3 0L0 0Z" fill="#FFF9E8" stroke-linecap="round" stroke-linejoin="miter"></path></svg>