<svg id="visual" viewBox="0 0 960 540" width="960" height="540" xmlns="http://www.w3.org/2000/svg" xmlns:xlink="http://www.w3.org/1999/xlink" version="1.1"><rect x="0" y="0" width="960" height="540" fill="#FFF9E8"></rect><path d="M0 113L7.7 125.5C15.3 138 30.7 163 45.8 181.7C61 200.3 76 212.7 91.2 203.7C106.3 194.7 121.7 164.3 137 164.8C152.3 165.3 167.7 196.7 183 207.8C198.3 219 213.7 210 228.8 202.7C244 195.3 259 189.7 274.2 164.8C289.3 140 304.7 96 320 98.2C335.3 100.3 350.7 148.7 365.8 156.5C381 164.3 396 131.7 411.2 117.2C426.3 102.7 441.7 106.3 457 97.2C472.3 88 487.7 66 503 82C518.3 98 533.7 152 548.8 152.7C564 153.3 579 100.7 594.2 91.5C609.3 82.3 624.7 116.7 640 125.8C655.3 135 670.7 119 685.8 105C701 91 716 79 731.2 92.8C746.3 106.7 761.7 146.3 777 157.3C792.3 168.3 807.7 150.7 823 136.8C838.3 123 853.7 113 868.8 115.3C884 117.7 899 132.3 914.2 138.2C929.3 144 944.7 141 952.3 139.5L960 138L960 0L952.3 0C944.7 0 929.3 0 914.2 0C899 0 884 0 868.8 0C853.7 0 838.3 0 823 0C807.7 0 792.3 0 777 0C761.7 0 746.3 0 731.2 0C716 0 701 0 685.8 0C670.7 0 655.3 0 640 0C624.7 0 609.3 0 594.2 0C579 0 564 0 548.8 0C533.7 0 518.3 0 503 0C487.7 0 472.3 0 457 0C441.7 0 426.3 0 411.2 0C396 0 381 0 365.8 0C350.7 0 335.3 0 320 0C304.7 0 289.3 0 274.2 0C259 0 244 0 228.8 0C213.7 0 198.3 0 183 0C167.7 0 152.3 0 137 0C121.7 0 106.3 0 91.2 0C76 0 61 0 45.8 0C30.7 0 15.3 0 7.7 0L0 0Z" fill="#FFD879" stroke-linecap="round" stroke-linejoin="miter"></path></svg>